<svg id="visual" viewBox="0 0 1600 736" width="1600" height="736" xmlns="http://www.w3.org/2000/svg" xmlns:xlink="http://www.w3.org/1999/xlink" version="1.1"><path d="M0 376L38.2 364.2C76.3 352.3 152.7 328.7 228.8 313.5C305 298.3 381 291.7 457.2 279.5C533.3 267.3 609.7 249.7 685.8 250C762 250.3 838 268.7 914.2 265.5C990.3 262.3 1066.7 237.7 1142.8 249.5C1219 261.3 1295 309.7 1371.2 308.8C1447.3 308 1523.7 258 1561.8 233L1600 208L1600 737L1561.8 737C1523.7 737 1447.3 737 1371.2 737C1295 737 1219 737 1142.8 737C1066.7 737 990.3 737 914.2 737C838 737 762 737 685.8 737C609.7 737 533.3 737 457.2 737C381 737 305 737 228.8 737C152.7 737 76.3 737 38.2 737L0 737Z" fill="#5cb85c"></path><path d="M0 337L38.2 333C76.3 329 152.7 321 228.8 336.7C305 352.3 381 391.7 457.2 391.8C533.3 392 609.7 353 685.8 354.8C762 356.7 838 399.3 914.2 411.5C990.3 423.7 1066.7 405.3 1142.8 384.8C1219 364.3 1295 341.7 1371.2 339.2C1447.3 336.7 1523.7 354.3 1561.8 363.2L1600 372L1600 737L1561.8 737C1523.7 737 1447.3 737 1371.2 737C1295 737 1219 737 1142.8 737C1066.7 737 990.3 737 914.2 737C838 737 762 737 685.8 737C609.7 737 533.3 737 457.2 737C381 737 305 737 228.8 737C152.7 737 76.3 737 38.2 737L0 737Z" fill="#4d9d4d"></path><path d="M0 428L38.2 438.8C76.3 449.7 152.7 471.3 228.8 473.8C305 476.3 381 459.7 457.2 457.8C533.3 456 609.7 469 685.8 478C762 487 838 492 914.2 493.5C990.3 495 1066.7 493 1142.8 497C1219 501 1295 511 1371.2 514.7C1447.3 518.3 1523.7 515.7 1561.8 514.3L1600 513L1600 737L1561.8 737C1523.7 737 1447.3 737 1371.2 737C1295 737 1219 737 1142.8 737C1066.7 737 990.3 737 914.2 737C838 737 762 737 685.8 737C609.7 737 533.3 737 457.2 737C381 737 305 737 228.8 737C152.7 737 76.3 737 38.2 737L0 737Z" fill="#3e833f"></path><path d="M0 507L38.2 506C76.3 505 152.7 503 228.8 500.5C305 498 381 495 457.2 502.2C533.3 509.3 609.7 526.7 685.8 532.5C762 538.3 838 532.7 914.2 538.2C990.3 543.7 1066.7 560.3 1142.8 556C1219 551.7 1295 526.3 1371.2 511.3C1447.3 496.3 1523.7 491.7 1561.8 489.3L1600 487L1600 737L1561.8 737C1523.7 737 1447.3 737 1371.2 737C1295 737 1219 737 1142.8 737C1066.7 737 990.3 737 914.2 737C838 737 762 737 685.8 737C609.7 737 533.3 737 457.2 737C381 737 305 737 228.8 737C152.7 737 76.3 737 38.2 737L0 737Z" fill="#306a31"></path><path d="M0 648L38.2 636.8C76.3 625.7 152.7 603.3 228.8 595.3C305 587.3 381 593.7 457.2 602.5C533.3 611.3 609.7 622.7 685.8 621.3C762 620 838 606 914.2 611.3C990.3 616.7 1066.7 641.3 1142.8 651.2C1219 661 1295 656 1371.2 656C1447.3 656 1523.7 661 1561.8 663.5L1600 666L1600 737L1561.8 737C1523.7 737 1447.3 737 1371.2 737C1295 737 1219 737 1142.8 737C1066.7 737 990.3 737 914.2 737C838 737 762 737 685.8 737C609.7 737 533.3 737 457.2 737C381 737 305 737 228.8 737C152.7 737 76.3 737 38.2 737L0 737Z" fill="#235224"></path></svg>