<svg xmlns="http://www.w3.org/2000/svg" version="1.1" xmlns:xlink="http://www.w3.org/1999/xlink" xmlns:svgjs="http://svgjs.com/svgjs" width="1440" height="560" preserveAspectRatio="none" viewBox="0 0 1440 560"><g mask="url(&quot;#SvgjsMask1014&quot;)" fill="none"><path d="M-67.48 380.44L-67.48 380.44" stroke="rgba(69, 210, 69, 1)" stroke-width="1.5"></path><path d="M-67.48 380.44L-41.97 497.91" stroke="rgba(69, 210, 69, 1)" stroke-width="1.5"></path><path d="M-67.48 380.44L61.95 360.55" stroke="rgba(69, 210, 69, 1)" stroke-width="1.5"></path><path d="M-67.48 380.44L73.19 550.94" stroke="rgba(69, 210, 69, 1)" stroke-width="1.5"></path><path d="M-41.97 497.91L-41.97 497.91" stroke="rgba(69, 210, 69, 1)" stroke-width="1.5"></path><path d="M-41.97 497.91L73.19 550.94" stroke="rgba(69, 210, 69, 1)" stroke-width="1.5"></path><path d="M-41.97 497.91L-51.19 655.01" stroke="rgba(69, 210, 69, 1)" stroke-width="1.5"></path><path d="M-51.19 655.01L-51.19 655.01" stroke="rgba(69, 210, 69, 1)" stroke-width="1.5"></path><path d="M-51.19 655.01L106.9 637.69" stroke="rgba(69, 210, 69, 1)" stroke-width="1.5"></path><path d="M-51.19 655.01L73.19 550.94" stroke="rgba(69, 210, 69, 1)" stroke-width="1.5"></path><path d="M61.95 360.55L61.95 360.55" stroke="rgba(69, 210, 69, 1)" stroke-width="1.5"></path><path d="M61.95 360.55L201.61 343.6" stroke="rgba(69, 210, 69, 1)" stroke-width="1.5"></path><path d="M61.95 360.55L-41.97 497.91" stroke="rgba(69, 210, 69, 1)" stroke-width="1.5"></path><path d="M61.95 360.55L73.19 550.94" stroke="rgba(69, 210, 69, 1)" stroke-width="1.5"></path><path d="M61.95 360.55L252.34 542.91" stroke="rgba(69, 210, 69, 1)" stroke-width="1.5"></path><path d="M73.19 550.94L73.19 550.94" stroke="rgba(69, 210, 69, 1)" stroke-width="1.5"></path><path d="M73.19 550.94L106.9 637.69" stroke="rgba(69, 210, 69, 1)" stroke-width="1.5"></path><path d="M73.19 550.94L252.34 542.91" stroke="rgba(69, 210, 69, 1)" stroke-width="1.5"></path><path d="M106.9 637.69L106.9 637.69" stroke="rgba(69, 210, 69, 1)" stroke-width="1.5"></path><path d="M106.9 637.69L221.02 708.92" stroke="rgba(69, 210, 69, 1)" stroke-width="1.5"></path><path d="M106.9 637.69L252.34 542.91" stroke="rgba(69, 210, 69, 1)" stroke-width="1.5"></path><path d="M201.61 343.6L201.61 343.6" stroke="rgba(69, 210, 69, 1)" stroke-width="1.5"></path><path d="M201.61 343.6L391.19 360.62" stroke="rgba(69, 210, 69, 1)" stroke-width="1.5"></path><path d="M252.34 542.91L252.34 542.91" stroke="rgba(69, 210, 69, 1)" stroke-width="1.5"></path><path d="M252.34 542.91L369.5 546.5" stroke="rgba(69, 210, 69, 1)" stroke-width="1.5"></path><path d="M252.34 542.91L221.02 708.92" stroke="rgba(69, 210, 69, 1)" stroke-width="1.5"></path><path d="M252.34 542.91L380.66 683.03" stroke="rgba(69, 210, 69, 1)" stroke-width="1.5"></path><path d="M221.02 708.92L221.02 708.92" stroke="rgba(69, 210, 69, 1)" stroke-width="1.5"></path><path d="M221.02 708.92L380.66 683.03" stroke="rgba(69, 210, 69, 1)" stroke-width="1.5"></path><path d="M391.19 360.62L391.19 360.62" stroke="rgba(69, 210, 69, 1)" stroke-width="1.5"></path><path d="M391.19 360.62L488.88 393.01" stroke="rgba(69, 210, 69, 1)" stroke-width="1.5"></path><path d="M391.19 360.62L369.5 546.5" stroke="rgba(69, 210, 69, 1)" stroke-width="1.5"></path><path d="M391.19 360.62L531.69 490.52" stroke="rgba(69, 210, 69, 1)" stroke-width="1.5"></path><path d="M391.19 360.62L252.34 542.91" stroke="rgba(69, 210, 69, 1)" stroke-width="1.5"></path><path d="M391.19 360.62L665.36 343.15" stroke="rgba(69, 210, 69, 1)" stroke-width="1.5"></path><path d="M369.5 546.5L369.5 546.5" stroke="rgba(69, 210, 69, 1)" stroke-width="1.5"></path><path d="M369.5 546.5L380.66 683.03" stroke="rgba(69, 210, 69, 1)" stroke-width="1.5"></path><path d="M369.5 546.5L531.69 490.52" stroke="rgba(69, 210, 69, 1)" stroke-width="1.5"></path><path d="M380.66 683.03L380.66 683.03" stroke="rgba(69, 210, 69, 1)" stroke-width="1.5"></path><path d="M380.66 683.03L561.71 682.5" stroke="rgba(69, 210, 69, 1)" stroke-width="1.5"></path><path d="M488.88 393.01L488.88 393.01" stroke="rgba(69, 210, 69, 1)" stroke-width="1.5"></path><path d="M488.88 393.01L531.69 490.52" stroke="rgba(69, 210, 69, 1)" stroke-width="1.5"></path><path d="M488.88 393.01L665.36 343.15" stroke="rgba(69, 210, 69, 1)" stroke-width="1.5"></path><path d="M488.88 393.01L369.5 546.5" stroke="rgba(69, 210, 69, 1)" stroke-width="1.5"></path><path d="M531.69 490.52L531.69 490.52" stroke="rgba(69, 210, 69, 1)" stroke-width="1.5"></path><path d="M531.69 490.52L561.71 682.5" stroke="rgba(69, 210, 69, 1)" stroke-width="1.5"></path><path d="M531.69 490.52L665.36 343.15" stroke="rgba(69, 210, 69, 1)" stroke-width="1.5"></path><path d="M531.69 490.52L671.88 685.2" stroke="rgba(69, 210, 69, 1)" stroke-width="1.5"></path><path d="M561.71 682.5L561.71 682.5" stroke="rgba(69, 210, 69, 1)" stroke-width="1.5"></path><path d="M561.71 682.5L671.88 685.2" stroke="rgba(69, 210, 69, 1)" stroke-width="1.5"></path><path d="M561.71 682.5L369.5 546.5" stroke="rgba(69, 210, 69, 1)" stroke-width="1.5"></path><path d="M656.52 230.33L656.52 230.33" stroke="rgba(69, 210, 69, 1)" stroke-width="1.5"></path><path d="M656.52 230.33L665.36 343.15" stroke="rgba(69, 210, 69, 1)" stroke-width="1.5"></path><path d="M656.52 230.33L488.88 393.01" stroke="rgba(69, 210, 69, 1)" stroke-width="1.5"></path><path d="M665.36 343.15L665.36 343.15" stroke="rgba(69, 210, 69, 1)" stroke-width="1.5"></path><path d="M671.88 685.2L671.88 685.2" stroke="rgba(69, 210, 69, 1)" stroke-width="1.5"></path><path d="M671.88 685.2L805.25 664.94" stroke="rgba(69, 210, 69, 1)" stroke-width="1.5"></path><path d="M842.95 500.61L842.95 500.61" stroke="rgba(69, 210, 69, 1)" stroke-width="1.5"></path><path d="M842.95 500.61L952.06 504.56" stroke="rgba(69, 210, 69, 1)" stroke-width="1.5"></path><path d="M842.95 500.61L805.25 664.94" stroke="rgba(69, 210, 69, 1)" stroke-width="1.5"></path><path d="M842.95 500.61L959.17 679.87" stroke="rgba(69, 210, 69, 1)" stroke-width="1.5"></path><path d="M842.95 500.61L665.36 343.15" stroke="rgba(69, 210, 69, 1)" stroke-width="1.5"></path><path d="M842.95 500.61L671.88 685.2" stroke="rgba(69, 210, 69, 1)" stroke-width="1.5"></path><path d="M805.25 664.94L805.25 664.94" stroke="rgba(69, 210, 69, 1)" stroke-width="1.5"></path><path d="M805.25 664.94L959.17 679.87" stroke="rgba(69, 210, 69, 1)" stroke-width="1.5"></path><path d="M805.25 664.94L952.06 504.56" stroke="rgba(69, 210, 69, 1)" stroke-width="1.5"></path><path d="M805.25 664.94L561.71 682.5" stroke="rgba(69, 210, 69, 1)" stroke-width="1.5"></path><path d="M805.25 664.94L531.69 490.52" stroke="rgba(69, 210, 69, 1)" stroke-width="1.5"></path><path d="M1000.07 -55.82L1000.07 -55.82" stroke="rgba(69, 210, 69, 1)" stroke-width="1.5"></path><path d="M1000.07 -55.82L1096.01 -87.28" stroke="rgba(69, 210, 69, 1)" stroke-width="1.5"></path><path d="M1000.07 -55.82L1001.47 53.98" stroke="rgba(69, 210, 69, 1)" stroke-width="1.5"></path><path d="M1000.07 -55.82L1088.41 71.83" stroke="rgba(69, 210, 69, 1)" stroke-width="1.5"></path><path d="M1001.47 53.98L1001.47 53.98" stroke="rgba(69, 210, 69, 1)" stroke-width="1.5"></path><path d="M1001.47 53.98L1088.41 71.83" stroke="rgba(69, 210, 69, 1)" stroke-width="1.5"></path><path d="M1001.47 53.98L1096.01 -87.28" stroke="rgba(69, 210, 69, 1)" stroke-width="1.5"></path><path d="M1001.47 53.98L986.61 225.59" stroke="rgba(69, 210, 69, 1)" stroke-width="1.5"></path><path d="M986.61 225.59L986.61 225.59" stroke="rgba(69, 210, 69, 1)" stroke-width="1.5"></path><path d="M986.61 225.59L1145.21 239.9" stroke="rgba(69, 210, 69, 1)" stroke-width="1.5"></path><path d="M952.06 504.56L952.06 504.56" stroke="rgba(69, 210, 69, 1)" stroke-width="1.5"></path><path d="M952.06 504.56L959.17 679.87" stroke="rgba(69, 210, 69, 1)" stroke-width="1.5"></path><path d="M952.06 504.56L1130.78 537.55" stroke="rgba(69, 210, 69, 1)" stroke-width="1.5"></path><path d="M952.06 504.56L1098.51 360.96" stroke="rgba(69, 210, 69, 1)" stroke-width="1.5"></path><path d="M959.17 679.87L959.17 679.87" stroke="rgba(69, 210, 69, 1)" stroke-width="1.5"></path><path d="M1096.01 -87.28L1096.01 -87.28" stroke="rgba(69, 210, 69, 1)" stroke-width="1.5"></path><path d="M1096.01 -87.28L1251.61 -56.6" stroke="rgba(69, 210, 69, 1)" stroke-width="1.5"></path><path d="M1096.01 -87.28L1088.41 71.83" stroke="rgba(69, 210, 69, 1)" stroke-width="1.5"></path><path d="M1088.41 71.83L1088.41 71.83" stroke="rgba(69, 210, 69, 1)" stroke-width="1.5"></path><path d="M1145.21 239.9L1145.21 239.9" stroke="rgba(69, 210, 69, 1)" stroke-width="1.5"></path><path d="M1145.21 239.9L1098.51 360.96" stroke="rgba(69, 210, 69, 1)" stroke-width="1.5"></path><path d="M1145.21 239.9L1302.04 235.12" stroke="rgba(69, 210, 69, 1)" stroke-width="1.5"></path><path d="M1098.51 360.96L1098.51 360.96" stroke="rgba(69, 210, 69, 1)" stroke-width="1.5"></path><path d="M1098.51 360.96L986.61 225.59" stroke="rgba(69, 210, 69, 1)" stroke-width="1.5"></path><path d="M1098.51 360.96L1130.78 537.55" stroke="rgba(69, 210, 69, 1)" stroke-width="1.5"></path><path d="M1130.78 537.55L1130.78 537.55" stroke="rgba(69, 210, 69, 1)" stroke-width="1.5"></path><path d="M1130.78 537.55L1312.39 523.01" stroke="rgba(69, 210, 69, 1)" stroke-width="1.5"></path><path d="M1251.61 -56.6L1251.61 -56.6" stroke="rgba(69, 210, 69, 1)" stroke-width="1.5"></path><path d="M1302.04 235.12L1302.04 235.12" stroke="rgba(69, 210, 69, 1)" stroke-width="1.5"></path><path d="M1302.04 235.12L1439.34 259.81" stroke="rgba(69, 210, 69, 1)" stroke-width="1.5"></path><path d="M1302.04 235.12L1442.5 381.07" stroke="rgba(69, 210, 69, 1)" stroke-width="1.5"></path><path d="M1312.39 523.01L1312.39 523.01" stroke="rgba(69, 210, 69, 1)" stroke-width="1.5"></path><path d="M1312.39 523.01L1417.5 504.81" stroke="rgba(69, 210, 69, 1)" stroke-width="1.5"></path><path d="M1312.39 523.01L1265.87 664.57" stroke="rgba(69, 210, 69, 1)" stroke-width="1.5"></path><path d="M1312.39 523.01L1389.7 686.71" stroke="rgba(69, 210, 69, 1)" stroke-width="1.5"></path><path d="M1312.39 523.01L1442.5 381.07" stroke="rgba(69, 210, 69, 1)" stroke-width="1.5"></path><path d="M1265.87 664.57L1265.87 664.57" stroke="rgba(69, 210, 69, 1)" stroke-width="1.5"></path><path d="M1265.87 664.57L1389.7 686.71" stroke="rgba(69, 210, 69, 1)" stroke-width="1.5"></path><path d="M1265.87 664.57L1130.78 537.55" stroke="rgba(69, 210, 69, 1)" stroke-width="1.5"></path><path d="M1265.87 664.57L1417.5 504.81" stroke="rgba(69, 210, 69, 1)" stroke-width="1.5"></path><path d="M1458.7 -54.99L1458.7 -54.99" stroke="rgba(69, 210, 69, 1)" stroke-width="1.5"></path><path d="M1458.7 -54.99L1412.75 43.54" stroke="rgba(69, 210, 69, 1)" stroke-width="1.5"></path><path d="M1458.7 -54.99L1579.16 -83" stroke="rgba(69, 210, 69, 1)" stroke-width="1.5"></path><path d="M1458.7 -54.99L1558.02 68.57" stroke="rgba(69, 210, 69, 1)" stroke-width="1.5"></path><path d="M1458.7 -54.99L1251.61 -56.6" stroke="rgba(69, 210, 69, 1)" stroke-width="1.5"></path><path d="M1458.7 -54.99L1550.16 203.96" stroke="rgba(69, 210, 69, 1)" stroke-width="1.5"></path><path d="M1458.7 -54.99L1439.34 259.81" stroke="rgba(69, 210, 69, 1)" stroke-width="1.5"></path><path d="M1412.75 43.54L1412.75 43.54" stroke="rgba(69, 210, 69, 1)" stroke-width="1.5"></path><path d="M1412.75 43.54L1558.02 68.57" stroke="rgba(69, 210, 69, 1)" stroke-width="1.5"></path><path d="M1412.75 43.54L1251.61 -56.6" stroke="rgba(69, 210, 69, 1)" stroke-width="1.5"></path><path d="M1439.34 259.81L1439.34 259.81" stroke="rgba(69, 210, 69, 1)" stroke-width="1.5"></path><path d="M1439.34 259.81L1442.5 381.07" stroke="rgba(69, 210, 69, 1)" stroke-width="1.5"></path><path d="M1439.34 259.81L1550.16 203.96" stroke="rgba(69, 210, 69, 1)" stroke-width="1.5"></path><path d="M1442.5 381.07L1442.5 381.07" stroke="rgba(69, 210, 69, 1)" stroke-width="1.5"></path><path d="M1442.5 381.07L1417.5 504.81" stroke="rgba(69, 210, 69, 1)" stroke-width="1.5"></path><path d="M1442.5 381.07L1597.56 369.66" stroke="rgba(69, 210, 69, 1)" stroke-width="1.5"></path><path d="M1417.5 504.81L1417.5 504.81" stroke="rgba(69, 210, 69, 1)" stroke-width="1.5"></path><path d="M1417.5 504.81L1557.43 487.92" stroke="rgba(69, 210, 69, 1)" stroke-width="1.5"></path><path d="M1417.5 504.81L1389.7 686.71" stroke="rgba(69, 210, 69, 1)" stroke-width="1.5"></path><path d="M1417.5 504.81L1561.21 661.37" stroke="rgba(69, 210, 69, 1)" stroke-width="1.5"></path><path d="M1389.7 686.71L1389.7 686.71" stroke="rgba(69, 210, 69, 1)" stroke-width="1.5"></path><path d="M1389.7 686.71L1561.21 661.37" stroke="rgba(69, 210, 69, 1)" stroke-width="1.5"></path><path d="M1389.7 686.71L1557.43 487.92" stroke="rgba(69, 210, 69, 1)" stroke-width="1.5"></path><path d="M1579.16 -83L1579.16 -83" stroke="rgba(69, 210, 69, 1)" stroke-width="1.5"></path><path d="M1579.16 -83L1558.02 68.57" stroke="rgba(69, 210, 69, 1)" stroke-width="1.5"></path><path d="M1579.16 -83L1412.75 43.54" stroke="rgba(69, 210, 69, 1)" stroke-width="1.5"></path><path d="M1579.16 -83L1550.16 203.96" stroke="rgba(69, 210, 69, 1)" stroke-width="1.5"></path><path d="M1579.16 -83L1251.61 -56.6" stroke="rgba(69, 210, 69, 1)" stroke-width="1.5"></path><path d="M1579.16 -83L1439.34 259.81" stroke="rgba(69, 210, 69, 1)" stroke-width="1.5"></path><path d="M1558.02 68.57L1558.02 68.57" stroke="rgba(69, 210, 69, 1)" stroke-width="1.5"></path><path d="M1558.02 68.57L1550.16 203.96" stroke="rgba(69, 210, 69, 1)" stroke-width="1.5"></path><path d="M1550.16 203.96L1550.16 203.96" stroke="rgba(69, 210, 69, 1)" stroke-width="1.5"></path><path d="M1550.16 203.96L1597.56 369.66" stroke="rgba(69, 210, 69, 1)" stroke-width="1.5"></path><path d="M1550.16 203.96L1442.5 381.07" stroke="rgba(69, 210, 69, 1)" stroke-width="1.5"></path><path d="M1550.16 203.96L1412.75 43.54" stroke="rgba(69, 210, 69, 1)" stroke-width="1.5"></path><path d="M1550.16 203.96L1302.04 235.12" stroke="rgba(69, 210, 69, 1)" stroke-width="1.5"></path><path d="M1597.56 369.66L1597.56 369.66" stroke="rgba(69, 210, 69, 1)" stroke-width="1.5"></path><path d="M1597.56 369.66L1557.43 487.92" stroke="rgba(69, 210, 69, 1)" stroke-width="1.5"></path><path d="M1557.43 487.92L1557.43 487.92" stroke="rgba(69, 210, 69, 1)" stroke-width="1.5"></path><path d="M1557.43 487.92L1442.5 381.07" stroke="rgba(69, 210, 69, 1)" stroke-width="1.5"></path><path d="M1557.43 487.92L1561.21 661.37" stroke="rgba(69, 210, 69, 1)" stroke-width="1.5"></path><path d="M1557.43 487.92L1312.39 523.01" stroke="rgba(69, 210, 69, 1)" stroke-width="1.5"></path><path d="M1557.43 487.92L1439.34 259.81" stroke="rgba(69, 210, 69, 1)" stroke-width="1.5"></path><path d="M1561.21 661.37L1561.21 661.37" stroke="rgba(69, 210, 69, 1)" stroke-width="1.5"></path><path d="M1561.21 661.37L1312.39 523.01" stroke="rgba(69, 210, 69, 1)" stroke-width="1.5"></path><circle r="5" cx="-67.48" cy="380.44" fill="rgba(69, 210, 69, 1)"></circle><circle r="5" cx="-41.97" cy="497.91" fill="rgba(69, 210, 69, 1)"></circle><circle r="5" cx="-51.19" cy="655.01" fill="rgba(69, 210, 69, 1)"></circle><circle r="5" cx="61.95" cy="360.55" fill="rgba(69, 210, 69, 1)"></circle><circle r="5" cx="73.19" cy="550.94" fill="rgba(69, 210, 69, 1)"></circle><circle r="5" cx="106.9" cy="637.69" fill="rgba(69, 210, 69, 1)"></circle><circle r="5" cx="201.61" cy="343.6" fill="rgba(69, 210, 69, 1)"></circle><circle r="5" cx="252.34" cy="542.91" fill="rgba(69, 210, 69, 1)"></circle><circle r="5" cx="221.02" cy="708.92" fill="rgba(69, 210, 69, 1)"></circle><circle r="5" cx="391.19" cy="360.62" fill="rgba(69, 210, 69, 1)"></circle><circle r="5" cx="369.5" cy="546.5" fill="rgba(69, 210, 69, 1)"></circle><circle r="5" cx="380.66" cy="683.03" fill="rgba(69, 210, 69, 1)"></circle><circle r="5" cx="488.88" cy="393.01" fill="rgba(69, 210, 69, 1)"></circle><circle r="5" cx="531.69" cy="490.52" fill="rgba(69, 210, 69, 1)"></circle><circle r="5" cx="561.71" cy="682.5" fill="rgba(69, 210, 69, 1)"></circle><circle r="5" cx="656.52" cy="230.33" fill="rgba(69, 210, 69, 1)"></circle><circle r="5" cx="665.36" cy="343.15" fill="rgba(69, 210, 69, 1)"></circle><circle r="5" cx="671.88" cy="685.2" fill="rgba(69, 210, 69, 1)"></circle><circle r="5" cx="842.95" cy="500.61" fill="rgba(69, 210, 69, 1)"></circle><circle r="5" cx="805.25" cy="664.94" fill="rgba(69, 210, 69, 1)"></circle><circle r="5" cx="1000.07" cy="-55.82" fill="rgba(69, 210, 69, 1)"></circle><circle r="5" cx="1001.47" cy="53.98" fill="rgba(69, 210, 69, 1)"></circle><circle r="5" cx="986.61" cy="225.59" fill="rgba(69, 210, 69, 1)"></circle><circle r="5" cx="952.06" cy="504.56" fill="rgba(69, 210, 69, 1)"></circle><circle r="5" cx="959.17" cy="679.87" fill="rgba(69, 210, 69, 1)"></circle><circle r="5" cx="1096.01" cy="-87.28" fill="rgba(69, 210, 69, 1)"></circle><circle r="5" cx="1088.41" cy="71.83" fill="rgba(69, 210, 69, 1)"></circle><circle r="5" cx="1145.21" cy="239.9" fill="rgba(69, 210, 69, 1)"></circle><circle r="5" cx="1098.51" cy="360.96" fill="rgba(69, 210, 69, 1)"></circle><circle r="5" cx="1130.78" cy="537.55" fill="rgba(69, 210, 69, 1)"></circle><circle r="5" cx="1251.61" cy="-56.6" fill="rgba(69, 210, 69, 1)"></circle><circle r="5" cx="1302.04" cy="235.12" fill="rgba(69, 210, 69, 1)"></circle><circle r="5" cx="1312.39" cy="523.01" fill="rgba(69, 210, 69, 1)"></circle><circle r="5" cx="1265.87" cy="664.57" fill="rgba(69, 210, 69, 1)"></circle><circle r="5" cx="1458.7" cy="-54.99" fill="rgba(69, 210, 69, 1)"></circle><circle r="5" cx="1412.75" cy="43.54" fill="rgba(69, 210, 69, 1)"></circle><circle r="5" cx="1439.34" cy="259.81" fill="rgba(69, 210, 69, 1)"></circle><circle r="5" cx="1442.5" cy="381.07" fill="rgba(69, 210, 69, 1)"></circle><circle r="5" cx="1417.5" cy="504.81" fill="rgba(69, 210, 69, 1)"></circle><circle r="5" cx="1389.7" cy="686.71" fill="rgba(69, 210, 69, 1)"></circle><circle r="5" cx="1579.16" cy="-83" fill="rgba(69, 210, 69, 1)"></circle><circle r="5" cx="1558.02" cy="68.57" fill="rgba(69, 210, 69, 1)"></circle><circle r="5" cx="1550.16" cy="203.96" fill="rgba(69, 210, 69, 1)"></circle><circle r="5" cx="1597.56" cy="369.66" fill="rgba(69, 210, 69, 1)"></circle><circle r="5" cx="1557.43" cy="487.92" fill="rgba(69, 210, 69, 1)"></circle><circle r="5" cx="1561.21" cy="661.37" fill="rgba(69, 210, 69, 1)"></circle><path d="M82.22 541.1L82.22 541.1" stroke="hsl(120, 39.3%, 70.4%)" stroke-width="1.5"></path><path d="M82.22 541.1L191.74 662.66" stroke="hsl(120, 39.3%, 70.4%)" stroke-width="1.5"></path><path d="M82.22 541.1L246.1 558.09" stroke="hsl(120, 39.3%, 70.4%)" stroke-width="1.5"></path><path d="M82.22 541.1L80.58 706.13" stroke="hsl(120, 39.3%, 70.4%)" stroke-width="1.5"></path><path d="M82.22 541.1L-107.05 526.67" stroke="hsl(120, 39.3%, 70.4%)" stroke-width="1.5"></path><path d="M82.22 541.1L-72.94 669.04" stroke="hsl(120, 39.3%, 70.4%)" stroke-width="1.5"></path><path d="M80.58 706.13L80.58 706.13" stroke="hsl(120, 39.3%, 70.4%)" stroke-width="1.5"></path><path d="M80.58 706.13L191.74 662.66" stroke="hsl(120, 39.3%, 70.4%)" stroke-width="1.5"></path><path d="M80.58 706.13L-72.94 669.04" stroke="hsl(120, 39.3%, 70.4%)" stroke-width="1.5"></path><path d="M963.18 363.92L963.18 363.92" stroke="hsl(120, 39.3%, 70.4%)" stroke-width="1.5"></path><path d="M963.18 363.92L824.04 378.7" stroke="hsl(120, 39.3%, 70.4%)" stroke-width="1.5"></path><path d="M1281.49 -109.67L1281.49 -109.67" stroke="hsl(120, 39.3%, 70.4%)" stroke-width="1.5"></path><path d="M1281.49 -109.67L1158.92 -67.31" stroke="hsl(120, 39.3%, 70.4%)" stroke-width="1.5"></path><path d="M1281.49 -109.67L1427.59 -51.28" stroke="hsl(120, 39.3%, 70.4%)" stroke-width="1.5"></path><path d="M1281.49 -109.67L1296.92 51.2" stroke="hsl(120, 39.3%, 70.4%)" stroke-width="1.5"></path><path d="M1281.49 -109.67L1412.3 54.55" stroke="hsl(120, 39.3%, 70.4%)" stroke-width="1.5"></path><path d="M1281.49 -109.67L1575.26 -86.34" stroke="hsl(120, 39.3%, 70.4%)" stroke-width="1.5"></path><path d="M1281.49 -109.67L1135.71 198.63" stroke="hsl(120, 39.3%, 70.4%)" stroke-width="1.5"></path><path d="M1427.59 -51.28L1427.59 -51.28" stroke="hsl(120, 39.3%, 70.4%)" stroke-width="1.5"></path><path d="M1427.59 -51.28L1412.3 54.55" stroke="hsl(120, 39.3%, 70.4%)" stroke-width="1.5"></path><path d="M1427.59 -51.28L1575.26 -86.34" stroke="hsl(120, 39.3%, 70.4%)" stroke-width="1.5"></path><path d="M1427.59 -51.28L1296.92 51.2" stroke="hsl(120, 39.3%, 70.4%)" stroke-width="1.5"></path><path d="M1406.74 519.78L1406.74 519.78" stroke="hsl(120, 39.3%, 70.4%)" stroke-width="1.5"></path><path d="M1406.74 519.78L1416.4 652.52" stroke="hsl(120, 39.3%, 70.4%)" stroke-width="1.5"></path><path d="M1406.74 519.78L1260.08 511.3" stroke="hsl(120, 39.3%, 70.4%)" stroke-width="1.5"></path><path d="M-107.05 526.67L-107.05 526.67" stroke="hsl(120, 39.3%, 70.4%)" stroke-width="1.5"></path><path d="M-107.05 526.67L-72.94 669.04" stroke="hsl(120, 39.3%, 70.4%)" stroke-width="1.5"></path><path d="M-107.05 526.67L80.58 706.13" stroke="hsl(120, 39.3%, 70.4%)" stroke-width="1.5"></path><path d="M-107.05 526.67L191.74 662.66" stroke="hsl(120, 39.3%, 70.4%)" stroke-width="1.5"></path><path d="M-107.05 526.67L246.1 558.09" stroke="hsl(120, 39.3%, 70.4%)" stroke-width="1.5"></path><path d="M-72.94 669.04L-72.94 669.04" stroke="hsl(120, 39.3%, 70.4%)" stroke-width="1.5"></path><path d="M246.1 558.09L246.1 558.09" stroke="hsl(120, 39.3%, 70.4%)" stroke-width="1.5"></path><path d="M246.1 558.09L191.74 662.66" stroke="hsl(120, 39.3%, 70.4%)" stroke-width="1.5"></path><path d="M246.1 558.09L381.12 652.86" stroke="hsl(120, 39.3%, 70.4%)" stroke-width="1.5"></path><path d="M246.1 558.09L410.48 543.77" stroke="hsl(120, 39.3%, 70.4%)" stroke-width="1.5"></path><path d="M246.1 558.09L80.58 706.13" stroke="hsl(120, 39.3%, 70.4%)" stroke-width="1.5"></path><path d="M246.1 558.09L527.1 546.02" stroke="hsl(120, 39.3%, 70.4%)" stroke-width="1.5"></path><path d="M191.74 662.66L191.74 662.66" stroke="hsl(120, 39.3%, 70.4%)" stroke-width="1.5"></path><path d="M410.48 543.77L410.48 543.77" stroke="hsl(120, 39.3%, 70.4%)" stroke-width="1.5"></path><path d="M410.48 543.77L381.12 652.86" stroke="hsl(120, 39.3%, 70.4%)" stroke-width="1.5"></path><path d="M410.48 543.77L527.1 546.02" stroke="hsl(120, 39.3%, 70.4%)" stroke-width="1.5"></path><path d="M410.48 543.77L191.74 662.66" stroke="hsl(120, 39.3%, 70.4%)" stroke-width="1.5"></path><path d="M410.48 543.77L697.17 645.44" stroke="hsl(120, 39.3%, 70.4%)" stroke-width="1.5"></path><path d="M410.48 543.77L692.18 386.45" stroke="hsl(120, 39.3%, 70.4%)" stroke-width="1.5"></path><path d="M381.12 652.86L381.12 652.86" stroke="hsl(120, 39.3%, 70.4%)" stroke-width="1.5"></path><path d="M381.12 652.86L527.1 546.02" stroke="hsl(120, 39.3%, 70.4%)" stroke-width="1.5"></path><path d="M381.12 652.86L191.74 662.66" stroke="hsl(120, 39.3%, 70.4%)" stroke-width="1.5"></path><path d="M381.12 652.86L80.58 706.13" stroke="hsl(120, 39.3%, 70.4%)" stroke-width="1.5"></path><path d="M527.1 546.02L527.1 546.02" stroke="hsl(120, 39.3%, 70.4%)" stroke-width="1.5"></path><path d="M527.1 546.02L697.17 645.44" stroke="hsl(120, 39.3%, 70.4%)" stroke-width="1.5"></path><path d="M527.1 546.02L692.18 386.45" stroke="hsl(120, 39.3%, 70.4%)" stroke-width="1.5"></path><path d="M527.1 546.02L798.9 527.53" stroke="hsl(120, 39.3%, 70.4%)" stroke-width="1.5"></path><path d="M692.18 386.45L692.18 386.45" stroke="hsl(120, 39.3%, 70.4%)" stroke-width="1.5"></path><path d="M692.18 386.45L824.04 378.7" stroke="hsl(120, 39.3%, 70.4%)" stroke-width="1.5"></path><path d="M697.17 645.44L697.17 645.44" stroke="hsl(120, 39.3%, 70.4%)" stroke-width="1.5"></path><path d="M697.17 645.44L835.49 663.25" stroke="hsl(120, 39.3%, 70.4%)" stroke-width="1.5"></path><path d="M697.17 645.44L798.9 527.53" stroke="hsl(120, 39.3%, 70.4%)" stroke-width="1.5"></path><path d="M697.17 645.44L692.18 386.45" stroke="hsl(120, 39.3%, 70.4%)" stroke-width="1.5"></path><path d="M697.17 645.44L981.6 688.53" stroke="hsl(120, 39.3%, 70.4%)" stroke-width="1.5"></path><path d="M824.04 378.7L824.04 378.7" stroke="hsl(120, 39.3%, 70.4%)" stroke-width="1.5"></path><path d="M824.04 378.7L798.9 527.53" stroke="hsl(120, 39.3%, 70.4%)" stroke-width="1.5"></path><path d="M824.04 378.7L981.21 542.62" stroke="hsl(120, 39.3%, 70.4%)" stroke-width="1.5"></path><path d="M798.9 527.53L798.9 527.53" stroke="hsl(120, 39.3%, 70.4%)" stroke-width="1.5"></path><path d="M798.9 527.53L835.49 663.25" stroke="hsl(120, 39.3%, 70.4%)" stroke-width="1.5"></path><path d="M798.9 527.53L692.18 386.45" stroke="hsl(120, 39.3%, 70.4%)" stroke-width="1.5"></path><path d="M798.9 527.53L981.21 542.62" stroke="hsl(120, 39.3%, 70.4%)" stroke-width="1.5"></path><path d="M835.49 663.25L835.49 663.25" stroke="hsl(120, 39.3%, 70.4%)" stroke-width="1.5"></path><path d="M835.49 663.25L981.6 688.53" stroke="hsl(120, 39.3%, 70.4%)" stroke-width="1.5"></path><path d="M835.49 663.25L981.21 542.62" stroke="hsl(120, 39.3%, 70.4%)" stroke-width="1.5"></path><path d="M981.21 542.62L981.21 542.62" stroke="hsl(120, 39.3%, 70.4%)" stroke-width="1.5"></path><path d="M981.21 542.62L981.6 688.53" stroke="hsl(120, 39.3%, 70.4%)" stroke-width="1.5"></path><path d="M981.21 542.62L1101.18 662.4" stroke="hsl(120, 39.3%, 70.4%)" stroke-width="1.5"></path><path d="M981.6 688.53L981.6 688.53" stroke="hsl(120, 39.3%, 70.4%)" stroke-width="1.5"></path><path d="M981.6 688.53L1101.18 662.4" stroke="hsl(120, 39.3%, 70.4%)" stroke-width="1.5"></path><path d="M1158.92 -67.31L1158.92 -67.31" stroke="hsl(120, 39.3%, 70.4%)" stroke-width="1.5"></path><path d="M1158.92 -67.31L1296.92 51.2" stroke="hsl(120, 39.3%, 70.4%)" stroke-width="1.5"></path><path d="M1158.92 -67.31L1135.71 198.63" stroke="hsl(120, 39.3%, 70.4%)" stroke-width="1.5"></path><path d="M1158.92 -67.31L1427.59 -51.28" stroke="hsl(120, 39.3%, 70.4%)" stroke-width="1.5"></path><path d="M1158.92 -67.31L1412.3 54.55" stroke="hsl(120, 39.3%, 70.4%)" stroke-width="1.5"></path><path d="M1158.92 -67.31L1277.17 239.11" stroke="hsl(120, 39.3%, 70.4%)" stroke-width="1.5"></path><path d="M1135.71 198.63L1135.71 198.63" stroke="hsl(120, 39.3%, 70.4%)" stroke-width="1.5"></path><path d="M1135.71 198.63L1277.17 239.11" stroke="hsl(120, 39.3%, 70.4%)" stroke-width="1.5"></path><path d="M1135.71 198.63L1101.76 395" stroke="hsl(120, 39.3%, 70.4%)" stroke-width="1.5"></path><path d="M1135.71 198.63L1257.69 372.47" stroke="hsl(120, 39.3%, 70.4%)" stroke-width="1.5"></path><path d="M1101.76 395L1101.76 395" stroke="hsl(120, 39.3%, 70.4%)" stroke-width="1.5"></path><path d="M1101.76 395L963.18 363.92" stroke="hsl(120, 39.3%, 70.4%)" stroke-width="1.5"></path><path d="M1101.76 395L1257.69 372.47" stroke="hsl(120, 39.3%, 70.4%)" stroke-width="1.5"></path><path d="M1156.99 548.12L1156.99 548.12" stroke="hsl(120, 39.3%, 70.4%)" stroke-width="1.5"></path><path d="M1156.99 548.12L1260.08 511.3" stroke="hsl(120, 39.3%, 70.4%)" stroke-width="1.5"></path><path d="M1156.99 548.12L1101.18 662.4" stroke="hsl(120, 39.3%, 70.4%)" stroke-width="1.5"></path><path d="M1156.99 548.12L1101.76 395" stroke="hsl(120, 39.3%, 70.4%)" stroke-width="1.5"></path><path d="M1101.18 662.4L1101.18 662.4" stroke="hsl(120, 39.3%, 70.4%)" stroke-width="1.5"></path><path d="M1101.18 662.4L1289.1 665.65" stroke="hsl(120, 39.3%, 70.4%)" stroke-width="1.5"></path><path d="M1101.18 662.4L1260.08 511.3" stroke="hsl(120, 39.3%, 70.4%)" stroke-width="1.5"></path><path d="M1296.92 51.2L1296.92 51.2" stroke="hsl(120, 39.3%, 70.4%)" stroke-width="1.5"></path><path d="M1296.92 51.2L1412.3 54.55" stroke="hsl(120, 39.3%, 70.4%)" stroke-width="1.5"></path><path d="M1277.17 239.11L1277.17 239.11" stroke="hsl(120, 39.3%, 70.4%)" stroke-width="1.5"></path><path d="M1277.17 239.11L1393.96 245.89" stroke="hsl(120, 39.3%, 70.4%)" stroke-width="1.5"></path><path d="M1277.17 239.11L1257.69 372.47" stroke="hsl(120, 39.3%, 70.4%)" stroke-width="1.5"></path><path d="M1277.17 239.11L1407.67 371.55" stroke="hsl(120, 39.3%, 70.4%)" stroke-width="1.5"></path><path d="M1257.69 372.47L1257.69 372.47" stroke="hsl(120, 39.3%, 70.4%)" stroke-width="1.5"></path><path d="M1257.69 372.47L1260.08 511.3" stroke="hsl(120, 39.3%, 70.4%)" stroke-width="1.5"></path><path d="M1257.69 372.47L1407.67 371.55" stroke="hsl(120, 39.3%, 70.4%)" stroke-width="1.5"></path><path d="M1260.08 511.3L1260.08 511.3" stroke="hsl(120, 39.3%, 70.4%)" stroke-width="1.5"></path><path d="M1260.08 511.3L1289.1 665.65" stroke="hsl(120, 39.3%, 70.4%)" stroke-width="1.5"></path><path d="M1289.1 665.65L1289.1 665.65" stroke="hsl(120, 39.3%, 70.4%)" stroke-width="1.5"></path><path d="M1289.1 665.65L1416.4 652.52" stroke="hsl(120, 39.3%, 70.4%)" stroke-width="1.5"></path><path d="M1289.1 665.65L1156.99 548.12" stroke="hsl(120, 39.3%, 70.4%)" stroke-width="1.5"></path><path d="M1289.1 665.65L1406.74 519.78" stroke="hsl(120, 39.3%, 70.4%)" stroke-width="1.5"></path><path d="M1412.3 54.55L1412.3 54.55" stroke="hsl(120, 39.3%, 70.4%)" stroke-width="1.5"></path><path d="M1412.3 54.55L1393.96 245.89" stroke="hsl(120, 39.3%, 70.4%)" stroke-width="1.5"></path><path d="M1412.3 54.55L1607.5 76.96" stroke="hsl(120, 39.3%, 70.4%)" stroke-width="1.5"></path><path d="M1412.3 54.55L1575.26 -86.34" stroke="hsl(120, 39.3%, 70.4%)" stroke-width="1.5"></path><path d="M1393.96 245.89L1393.96 245.89" stroke="hsl(120, 39.3%, 70.4%)" stroke-width="1.5"></path><path d="M1393.96 245.89L1407.67 371.55" stroke="hsl(120, 39.3%, 70.4%)" stroke-width="1.5"></path><path d="M1393.96 245.89L1552.37 258.38" stroke="hsl(120, 39.3%, 70.4%)" stroke-width="1.5"></path><path d="M1393.96 245.89L1257.69 372.47" stroke="hsl(120, 39.3%, 70.4%)" stroke-width="1.5"></path><path d="M1407.67 371.55L1407.67 371.55" stroke="hsl(120, 39.3%, 70.4%)" stroke-width="1.5"></path><path d="M1407.67 371.55L1406.74 519.78" stroke="hsl(120, 39.3%, 70.4%)" stroke-width="1.5"></path><path d="M1416.4 652.52L1416.4 652.52" stroke="hsl(120, 39.3%, 70.4%)" stroke-width="1.5"></path><path d="M1416.4 652.52L1573.86 664.12" stroke="hsl(120, 39.3%, 70.4%)" stroke-width="1.5"></path><path d="M1416.4 652.52L1260.08 511.3" stroke="hsl(120, 39.3%, 70.4%)" stroke-width="1.5"></path><path d="M1416.4 652.52L1596.74 496.32" stroke="hsl(120, 39.3%, 70.4%)" stroke-width="1.5"></path><path d="M1575.26 -86.34L1575.26 -86.34" stroke="hsl(120, 39.3%, 70.4%)" stroke-width="1.5"></path><path d="M1575.26 -86.34L1607.5 76.96" stroke="hsl(120, 39.3%, 70.4%)" stroke-width="1.5"></path><path d="M1607.5 76.96L1607.5 76.96" stroke="hsl(120, 39.3%, 70.4%)" stroke-width="1.5"></path><path d="M1607.5 76.96L1552.37 258.38" stroke="hsl(120, 39.3%, 70.4%)" stroke-width="1.5"></path><path d="M1607.5 76.96L1427.59 -51.28" stroke="hsl(120, 39.3%, 70.4%)" stroke-width="1.5"></path><path d="M1607.5 76.96L1393.96 245.89" stroke="hsl(120, 39.3%, 70.4%)" stroke-width="1.5"></path><path d="M1552.37 258.38L1552.37 258.38" stroke="hsl(120, 39.3%, 70.4%)" stroke-width="1.5"></path><path d="M1552.37 258.38L1573.65 351.42" stroke="hsl(120, 39.3%, 70.4%)" stroke-width="1.5"></path><path d="M1552.37 258.38L1407.67 371.55" stroke="hsl(120, 39.3%, 70.4%)" stroke-width="1.5"></path><path d="M1552.37 258.38L1596.74 496.32" stroke="hsl(120, 39.3%, 70.4%)" stroke-width="1.5"></path><path d="M1552.37 258.38L1412.3 54.55" stroke="hsl(120, 39.3%, 70.4%)" stroke-width="1.5"></path><path d="M1573.65 351.42L1573.65 351.42" stroke="hsl(120, 39.3%, 70.4%)" stroke-width="1.5"></path><path d="M1573.65 351.42L1596.74 496.32" stroke="hsl(120, 39.3%, 70.4%)" stroke-width="1.5"></path><path d="M1573.65 351.42L1407.67 371.55" stroke="hsl(120, 39.3%, 70.4%)" stroke-width="1.5"></path><path d="M1573.65 351.42L1393.96 245.89" stroke="hsl(120, 39.3%, 70.4%)" stroke-width="1.5"></path><path d="M1573.65 351.42L1406.74 519.78" stroke="hsl(120, 39.3%, 70.4%)" stroke-width="1.5"></path><path d="M1596.74 496.32L1596.74 496.32" stroke="hsl(120, 39.3%, 70.4%)" stroke-width="1.5"></path><path d="M1596.74 496.32L1573.86 664.12" stroke="hsl(120, 39.3%, 70.4%)" stroke-width="1.5"></path><path d="M1596.74 496.32L1406.74 519.78" stroke="hsl(120, 39.3%, 70.4%)" stroke-width="1.5"></path><path d="M1596.74 496.32L1407.67 371.55" stroke="hsl(120, 39.3%, 70.4%)" stroke-width="1.5"></path><path d="M1573.86 664.12L1573.86 664.12" stroke="hsl(120, 39.3%, 70.4%)" stroke-width="1.5"></path><circle r="25" cx="82.22" cy="541.1" fill="url(#SvgjsRadialGradient1015)"></circle><circle r="25" cx="80.58" cy="706.13" fill="url(#SvgjsRadialGradient1015)"></circle><circle r="25" cx="963.18" cy="363.92" fill="url(#SvgjsRadialGradient1015)"></circle><circle r="25" cx="1281.49" cy="-109.67" fill="url(#SvgjsRadialGradient1015)"></circle><circle r="25" cx="1427.59" cy="-51.28" fill="url(#SvgjsRadialGradient1015)"></circle><circle r="25" cx="1406.74" cy="519.78" fill="url(#SvgjsRadialGradient1015)"></circle><circle r="5" cx="-107.05" cy="526.67" fill="#aedcae"></circle><circle r="5" cx="-72.94" cy="669.04" fill="#aedcae"></circle><circle r="5" cx="246.1" cy="558.09" fill="#aedcae"></circle><circle r="5" cx="191.74" cy="662.66" fill="#aedcae"></circle><circle r="5" cx="410.48" cy="543.77" fill="#aedcae"></circle><circle r="5" cx="381.12" cy="652.86" fill="#aedcae"></circle><circle r="5" cx="527.1" cy="546.02" fill="#aedcae"></circle><circle r="5" cx="692.18" cy="386.45" fill="#aedcae"></circle><circle r="5" cx="697.17" cy="645.44" fill="#aedcae"></circle><circle r="5" cx="824.04" cy="378.7" fill="#aedcae"></circle><circle r="5" cx="798.9" cy="527.53" fill="#aedcae"></circle><circle r="5" cx="835.49" cy="663.25" fill="#aedcae"></circle><circle r="5" cx="981.21" cy="542.62" fill="#aedcae"></circle><circle r="5" cx="981.6" cy="688.53" fill="#aedcae"></circle><circle r="5" cx="1158.92" cy="-67.31" fill="#aedcae"></circle><circle r="5" cx="1135.71" cy="198.63" fill="#aedcae"></circle><circle r="5" cx="1101.76" cy="395" fill="#aedcae"></circle><circle r="5" cx="1156.99" cy="548.12" fill="#aedcae"></circle><circle r="5" cx="1101.18" cy="662.4" fill="#aedcae"></circle><circle r="5" cx="1296.92" cy="51.2" fill="#aedcae"></circle><circle r="5" cx="1277.17" cy="239.11" fill="#aedcae"></circle><circle r="5" cx="1257.69" cy="372.47" fill="#aedcae"></circle><circle r="5" cx="1260.08" cy="511.3" fill="#aedcae"></circle><circle r="5" cx="1289.1" cy="665.65" fill="#aedcae"></circle><circle r="5" cx="1412.3" cy="54.55" fill="#aedcae"></circle><circle r="5" cx="1393.96" cy="245.89" fill="#aedcae"></circle><circle r="5" cx="1407.67" cy="371.55" fill="#aedcae"></circle><circle r="5" cx="1416.4" cy="652.52" fill="#aedcae"></circle><circle r="5" cx="1575.26" cy="-86.34" fill="#aedcae"></circle><circle r="5" cx="1607.5" cy="76.96" fill="#aedcae"></circle><circle r="5" cx="1552.37" cy="258.38" fill="#aedcae"></circle><circle r="5" cx="1573.65" cy="351.42" fill="#aedcae"></circle><circle r="5" cx="1596.74" cy="496.32" fill="#aedcae"></circle><circle r="5" cx="1573.86" cy="664.12" fill="#aedcae"></circle></g><defs><mask id="SvgjsMask1014"><rect width="1440" height="560" fill="#ffffff"></rect></mask><radialGradient id="SvgjsRadialGradient1015"><stop stop-color="#ffffff" offset="0.1"></stop><stop stop-color="rgba(92, 184, 92, 1)" offset="0.2"></stop><stop stop-color="rgba(92, 184, 92, 0)" offset="1"></stop></radialGradient></defs></svg>