<svg id="visual" viewBox="0 0 1600 736" width="1600" height="736" xmlns="http://www.w3.org/2000/svg" xmlns:xlink="http://www.w3.org/1999/xlink" version="1.1"><path d="M0 126L145 126L145 75L291 75L291 126L436 126L436 60L582 60L582 89L727 89L727 82L873 82L873 89L1018 89L1018 75L1164 75L1164 45L1309 45L1309 97L1455 97L1455 53L1600 53L1600 53L1600 0L1600 0L1455 0L1455 0L1309 0L1309 0L1164 0L1164 0L1018 0L1018 0L873 0L873 0L727 0L727 0L582 0L582 0L436 0L436 0L291 0L291 0L145 0L145 0L0 0Z" fill="#5cb85c"></path><path d="M0 369L145 369L145 192L291 192L291 398L436 398L436 259L582 259L582 303L727 303L727 200L873 200L873 281L1018 281L1018 332L1164 332L1164 222L1309 222L1309 443L1455 443L1455 214L1600 214L1600 391L1600 51L1600 51L1455 51L1455 95L1309 95L1309 43L1164 43L1164 73L1018 73L1018 87L873 87L873 80L727 80L727 87L582 87L582 58L436 58L436 124L291 124L291 73L145 73L145 124L0 124Z" fill="#47b064"></path><path d="M0 509L145 509L145 501L291 501L291 568L436 568L436 479L582 479L582 509L727 509L727 509L873 509L873 450L1018 450L1018 509L1164 509L1164 450L1309 450L1309 590L1455 590L1455 487L1600 487L1600 575L1600 389L1600 212L1455 212L1455 441L1309 441L1309 220L1164 220L1164 330L1018 330L1018 279L873 279L873 198L727 198L727 301L582 301L582 257L436 257L436 396L291 396L291 190L145 190L145 367L0 367Z" fill="#32a76b"></path><path d="M0 685L145 685L145 641L291 641L291 641L436 641L436 605L582 605L582 612L727 612L727 612L873 612L873 634L1018 634L1018 671L1164 671L1164 663L1309 663L1309 663L1455 663L1455 649L1600 649L1600 671L1600 573L1600 485L1455 485L1455 588L1309 588L1309 448L1164 448L1164 507L1018 507L1018 448L873 448L873 507L727 507L727 507L582 507L582 477L436 477L436 566L291 566L291 499L145 499L145 507L0 507Z" fill="#1c9e70"></path><path d="M0 737L145 737L145 737L291 737L291 737L436 737L436 737L582 737L582 737L727 737L727 737L873 737L873 737L1018 737L1018 737L1164 737L1164 737L1309 737L1309 737L1455 737L1455 737L1600 737L1600 737L1600 669L1600 647L1455 647L1455 661L1309 661L1309 661L1164 661L1164 669L1018 669L1018 632L873 632L873 610L727 610L727 610L582 610L582 603L436 603L436 639L291 639L291 639L145 639L145 683L0 683Z" fill="#009473"></path></svg>