<?xml version="1.0" encoding="utf-8" standalone="yes"?> <svg width="1000" height="1000" viewBox="-1 -1 27 27" xmlns="http://www.w3.org/2000/svg" shape-rendering="geometricPrecision" id="qr code"><rect id="qr background" fill-opacity="1" fill="rgb(255, 255, 255)" x="-1" y="-1" width="27" height="27" ry="1.3499999999999999"></rect><path fill-opacity="1" fill="rgb(0, 0, 0)" id="qr dark pixels" fill-rule="evenodd" d="M 8 0.4a 0.4,0.4 0 0 1 0.4,-0.4L 11.6 0a 0.4,0.4 0 0 1 0.4,0.4L 12 0.6a 0.4,0.4 0 0 0 0.4,0.4L 12.6 1a 0.4,0.4 0 0 1 0.4,0.4L 13 1.6a 0.4,0.4 0 0 1 -0.4,0.4L 12.4 2a 0.4,0.4 0 0 0 -0.4,0.4L 12 2.6a 0.4,0.4 0 0 0 0.4,0.4L 12.6 3a 0.4,0.4 0 0 0 0.4,-0.4L 13 2.4a 0.4,0.4 0 0 1 0.4,-0.4L 14.6 2a 0.4,0.4 0 0 1 0.4,0.4L 15 2.6a 0.4,0.4 0 0 1 -0.4,0.4L 14.4 3a 0.4,0.4 0 0 0 -0.4,0.4L 14 3.6a 0.4,0.4 0 0 1 -0.4,0.4L 13.4 4a 0.4,0.4 0 0 0 -0.4,0.4L 13 4.6a 0.4,0.4 0 0 1 -0.4,0.4L 12.4 5a 0.4,0.4 0 0 0 -0.4,0.4L 12 5.6a 0.4,0.4 0 0 1 -0.4,0.4L 11.4 6a 0.4,0.4 0 0 1 -0.4,-0.4L 11 5.4a 0.4,0.4 0 0 0 -0.4,-0.4L 10.4 5a 0.4,0.4 0 0 1 -0.4,-0.4L 10 3.4a 0.4,0.4 0 0 1 0.4,-0.4L 10.6 3a 0.4,0.4 0 0 0 0.4,-0.4L 11 1.4a 0.4,0.4 0 0 0 -0.4,-0.4L 8.4 1a 0.4,0.4 0 0 1 -0.4,-0.4z M 14 0.4a 0.4,0.4 0 0 1 0.4,-0.4L 14.6 0a 0.4,0.4 0 0 1 0.4,0.4L 15 0.6a 0.4,0.4 0 0 1 -0.4,0.4L 14.4 1a 0.4,0.4 0 0 1 -0.4,-0.4z M 16 0.4a 0.4,0.4 0 0 1 0.4,-0.4L 16.6 0a 0.4,0.4 0 0 1 0.4,0.4L 17 1.6a 0.4,0.4 0 0 1 -0.4,0.4L 16.4 2a 0.4,0.4 0 0 1 -0.4,-0.4z M 9 2.4a 0.4,0.4 0 0 1 0.4,-0.4L 9.6 2a 0.4,0.4 0 0 1 0.4,0.4L 10 2.6a 0.4,0.4 0 0 1 -0.4,0.4L 9.4 3a 0.4,0.4 0 0 1 -0.4,-0.4z M 16 3.4a 0.4,0.4 0 0 1 0.4,-0.4L 16.6 3a 0.4,0.4 0 0 1 0.4,0.4L 17 4.6a 0.4,0.4 0 0 1 -0.4,0.4L 16.4 5a 0.4,0.4 0 0 1 -0.4,-0.4z M 14 4.4a 0.4,0.4 0 0 1 0.4,-0.4L 14.6 4a 0.4,0.4 0 0 1 0.4,0.4L 15 4.6a 0.4,0.4 0 0 1 -0.4,0.4L 14.4 5a 0.4,0.4 0 0 1 -0.4,-0.4z M 9 5.4a 0.4,0.4 0 0 1 0.4,-0.4L 9.6 5a 0.4,0.4 0 0 1 0.4,0.4L 10 5.6a 0.4,0.4 0 0 1 -0.4,0.4L 9.4 6a 0.4,0.4 0 0 1 -0.4,-0.4z M 8 6.4a 0.4,0.4 0 0 1 0.4,-0.4L 8.6 6a 0.4,0.4 0 0 1 0.4,0.4L 9 6.6a 0.4,0.4 0 0 0 0.4,0.4L 9.6 7a 0.4,0.4 0 0 1 0.4,0.4L 10 8.6a 0.4,0.4 0 0 1 -0.4,0.4L 9.4 9a 0.4,0.4 0 0 1 -0.4,-0.4L 9 8.4a 0.4,0.4 0 0 0 -0.4,-0.4L 8.4 8a 0.4,0.4 0 0 1 -0.4,-0.4z M 10 6.4a 0.4,0.4 0 0 1 0.4,-0.4L 10.6 6a 0.4,0.4 0 0 1 0.4,0.4L 11 6.6a 0.4,0.4 0 0 1 -0.4,0.4L 10.4 7a 0.4,0.4 0 0 1 -0.4,-0.4z M 12 6.4a 0.4,0.4 0 0 1 0.4,-0.4L 12.6 6a 0.4,0.4 0 0 1 0.4,0.4L 13 6.6a 0.4,0.4 0 0 1 -0.4,0.4L 12.4 7a 0.4,0.4 0 0 1 -0.4,-0.4z M 14 6.4a 0.4,0.4 0 0 1 0.4,-0.4L 14.6 6a 0.4,0.4 0 0 1 0.4,0.4L 15 6.6a 0.4,0.4 0 0 1 -0.4,0.4L 14.4 7a 0.4,0.4 0 0 1 -0.4,-0.4z M 16 6.4a 0.4,0.4 0 0 1 0.4,-0.4L 16.6 6a 0.4,0.4 0 0 1 0.4,0.4L 17 8.6a 0.4,0.4 0 0 0 0.4,0.4L 17.6 9a 0.4,0.4 0 0 1 0.4,0.4L 18 9.6a 0.4,0.4 0 0 0 0.4,0.4L 18.6 10a 0.4,0.4 0 0 0 0.4,-0.4L 19 9.4a 0.4,0.4 0 0 1 0.4,-0.4L 23.6 9a 0.4,0.4 0 0 1 0.4,0.4L 24 9.6a 0.4,0.4 0 0 1 -0.4,0.4L 22.4 10a 0.4,0.4 0 0 0 -0.4,0.4L 22 10.6a 0.4,0.4 0 0 0 0.4,0.4L 23.6 11a 0.4,0.4 0 0 0 0.4,-0.4L 24 10.4a 0.4,0.4 0 0 1 0.4,-0.4L 24.6 10a 0.4,0.4 0 0 1 0.4,0.4L 25 12.6a 0.4,0.4 0 0 1 -0.4,0.4L 24.4 13a 0.4,0.4 0 0 1 -0.4,-0.4L 24 12.4a 0.4,0.4 0 0 0 -0.4,-0.4L 21.4 12a 0.4,0.4 0 0 1 -0.4,-0.4L 21 11.4a 0.4,0.4 0 0 0 -0.4,-0.4L 18.4 11a 0.4,0.4 0 0 0 -0.4,0.4L 18 11.6a 0.4,0.4 0 0 0 0.4,0.4L 18.6 12a 0.4,0.4 0 0 1 0.4,0.4L 19 12.6a 0.4,0.4 0 0 1 -0.4,0.4L 17.4 13a 0.4,0.4 0 0 0 -0.4,0.4L 17 13.6a 0.4,0.4 0 0 1 -0.4,0.4L 16.4 14a 0.4,0.4 0 0 0 -0.4,0.4L 16 16.6a 0.4,0.4 0 0 1 -0.4,0.4L 15.4 17a 0.4,0.4 0 0 1 -0.4,-0.4L 15 16.4a 0.4,0.4 0 0 0 -0.4,-0.4L 14.4 16a 0.4,0.4 0 0 1 -0.4,-0.4L 14 15.4a 0.4,0.4 0 0 0 -0.4,-0.4L 13.4 15a 0.4,0.4 0 0 1 -0.4,-0.4L 13 14.4a 0.4,0.4 0 0 0 -0.4,-0.4L 11.4 14a 0.4,0.4 0 0 0 -0.4,0.4L 11 15.6a 0.4,0.4 0 0 0 0.4,0.4L 11.6 16a 0.4,0.4 0 0 1 0.4,0.4L 12 16.6a 0.4,0.4 0 0 1 -0.4,0.4L 11.4 17a 0.4,0.4 0 0 0 -0.4,0.4L 11 17.6a 0.4,0.4 0 0 0 0.4,0.4L 11.6 18a 0.4,0.4 0 0 1 0.4,0.4L 12 18.6a 0.4,0.4 0 0 1 -0.4,0.4L 11.4 19a 0.4,0.4 0 0 0 -0.4,0.4L 11 19.6a 0.4,0.4 0 0 1 -0.4,0.4L 10.4 20a 0.4,0.4 0 0 0 -0.4,0.4L 10 20.6a 0.4,0.4 0 0 0 0.4,0.4L 10.6 21a 0.4,0.4 0 0 1 0.4,0.4L 11 21.6a 0.4,0.4 0 0 0 0.4,0.4L 11.6 22a 0.4,0.4 0 0 1 0.4,0.4L 12 22.6a 0.4,0.4 0 0 0 0.4,0.4L 12.6 23a 0.4,0.4 0 0 1 0.4,0.4L 13 23.6a 0.4,0.4 0 0 1 -0.4,0.4L 11.4 24a 0.4,0.4 0 0 0 -0.4,0.4L 11 24.6a 0.4,0.4 0 0 1 -0.4,0.4L 8.4 25a 0.4,0.4 0 0 1 -0.4,-0.4L 8 23.4a 0.4,0.4 0 0 1 0.4,-0.4L 8.6 23a 0.4,0.4 0 0 1 0.4,0.4L 9 23.6a 0.4,0.4 0 0 0 0.4,0.4L 9.6 24a 0.4,0.4 0 0 0 0.4,-0.4L 10 22.4a 0.4,0.4 0 0 0 -0.4,-0.4L 8.4 22a 0.4,0.4 0 0 1 -0.4,-0.4L 8 20.4a 0.4,0.4 0 0 1 0.4,-0.4L 8.6 20a 0.4,0.4 0 0 0 0.4,-0.4L 9 19.4a 0.4,0.4 0 0 1 0.4,-0.4L 9.6 19a 0.4,0.4 0 0 0 0.4,-0.4L 10 17.4a 0.4,0.4 0 0 0 -0.4,-0.4L 9.4 17a 0.4,0.4 0 0 1 -0.4,-0.4L 9 16.4a 0.4,0.4 0 0 0 -0.4,-0.4L 8.4 16a 0.4,0.4 0 0 1 -0.4,-0.4L 8 15.4a 0.4,0.4 0 0 0 -0.4,-0.4L 6.4 15a 0.4,0.4 0 0 0 -0.4,0.4L 6 15.6a 0.4,0.4 0 0 0 0.4,0.4L 7.6 16a 0.4,0.4 0 0 1 0.4,0.4L 8 16.6a 0.4,0.4 0 0 1 -0.4,0.4L 5.4 17a 0.4,0.4 0 0 1 -0.4,-0.4L 5 15.4a 0.4,0.4 0 0 0 -0.4,-0.4L 4.4 15a 0.4,0.4 0 0 1 -0.4,-0.4L 4 13.4a 0.4,0.4 0 0 0 -0.4,-0.4L 3.4 13a 0.4,0.4 0 0 1 -0.4,-0.4L 3 12.4a 0.4,0.4 0 0 0 -0.4,-0.4L 2.4 12a 0.4,0.4 0 0 1 -0.4,-0.4L 2 11.4a 0.4,0.4 0 0 0 -0.4,-0.4L 1.4 11a 0.4,0.4 0 0 1 -0.4,-0.4L 1 10.4a 0.4,0.4 0 0 0 -0.4,-0.4L 0.4 10a 0.4,0.4 0 0 1 -0.4,-0.4L 0 8.4a 0.4,0.4 0 0 1 0.4,-0.4L 1.6 8a 0.4,0.4 0 0 1 0.4,0.4L 2 8.6a 0.4,0.4 0 0 0 0.4,0.4L 2.6 9a 0.4,0.4 0 0 1 0.4,0.4L 3 10.6a 0.4,0.4 0 0 0 0.4,0.4L 3.6 11a 0.4,0.4 0 0 1 0.4,0.4L 4 11.6a 0.4,0.4 0 0 0 0.4,0.4L 4.6 12a 0.4,0.4 0 0 1 0.4,0.4L 5 12.6a 0.4,0.4 0 0 0 0.4,0.4L 5.6 13a 0.4,0.4 0 0 1 0.4,0.4L 6 13.6a 0.4,0.4 0 0 0 0.4,0.4L 9.6 14a 0.4,0.4 0 0 0 0.4,-0.4L 10 13.4a 0.4,0.4 0 0 0 -0.4,-0.4L 9.4 13a 0.4,0.4 0 0 1 -0.4,-0.4L 9 12.4a 0.4,0.4 0 0 1 0.4,-0.4L 10.6 12a 0.4,0.4 0 0 1 0.4,0.4L 11 12.6a 0.4,0.4 0 0 0 0.4,0.4L 14.6 13a 0.4,0.4 0 0 0 0.4,-0.4L 15 12.4a 0.4,0.4 0 0 1 0.4,-0.4L 16.6 12a 0.4,0.4 0 0 0 0.4,-0.4L 17 11.4a 0.4,0.4 0 0 0 -0.4,-0.4L 15.4 11a 0.4,0.4 0 0 1 -0.4,-0.4L 15 10.4a 0.4,0.4 0 0 0 -0.4,-0.4L 14.4 10a 0.4,0.4 0 0 0 -0.4,0.4L 14 10.6a 0.4,0.4 0 0 1 -0.4,0.4L 13.4 11a 0.4,0.4 0 0 1 -0.4,-0.4L 13 9.4a 0.4,0.4 0 0 1 0.4,-0.4L 13.6 9a 0.4,0.4 0 0 0 0.4,-0.4L 14 8.4a 0.4,0.4 0 0 1 0.4,-0.4L 14.6 8a 0.4,0.4 0 0 1 0.4,0.4L 15 8.6a 0.4,0.4 0 0 0 0.4,0.4L 15.6 9a 0.4,0.4 0 0 0 0.4,-0.4L 16 8.4a 0.4,0.4 0 0 0 -0.4,-0.4L 15.4 8a 0.4,0.4 0 0 1 -0.4,-0.4L 15 7.4a 0.4,0.4 0 0 1 0.4,-0.4L 15.6 7a 0.4,0.4 0 0 0 0.4,-0.4z M 13 7.4a 0.4,0.4 0 0 1 0.4,-0.4L 13.6 7a 0.4,0.4 0 0 1 0.4,0.4L 14 7.6a 0.4,0.4 0 0 1 -0.4,0.4L 13.4 8a 0.4,0.4 0 0 1 -0.4,-0.4z M 3 8.4a 0.4,0.4 0 0 1 0.4,-0.4L 4.6 8a 0.4,0.4 0 0 1 0.4,0.4L 5 10.6a 0.4,0.4 0 0 1 -0.4,0.4L 4.4 11a 0.4,0.4 0 0 1 -0.4,-0.4L 4 9.4a 0.4,0.4 0 0 0 -0.4,-0.4L 3.4 9a 0.4,0.4 0 0 1 -0.4,-0.4z M 6 8.4a 0.4,0.4 0 0 1 0.4,-0.4L 6.6 8a 0.4,0.4 0 0 1 0.4,0.4L 7 8.6a 0.4,0.4 0 0 1 -0.4,0.4L 6.4 9a 0.4,0.4 0 0 1 -0.4,-0.4z M 12 8.4a 0.4,0.4 0 0 1 0.4,-0.4L 12.6 8a 0.4,0.4 0 0 1 0.4,0.4L 13 8.6a 0.4,0.4 0 0 1 -0.4,0.4L 12.4 9a 0.4,0.4 0 0 1 -0.4,-0.4z M 18 8.4a 0.4,0.4 0 0 1 0.4,-0.4L 18.6 8a 0.4,0.4 0 0 1 0.4,0.4L 19 8.6a 0.4,0.4 0 0 1 -0.4,0.4L 18.4 9a 0.4,0.4 0 0 1 -0.4,-0.4z M 24 8.4a 0.4,0.4 0 0 1 0.4,-0.4L 24.6 8a 0.4,0.4 0 0 1 0.4,0.4L 25 8.6a 0.4,0.4 0 0 1 -0.4,0.4L 24.4 9a 0.4,0.4 0 0 1 -0.4,-0.4z M 8 9.4a 0.4,0.4 0 0 1 0.4,-0.4L 8.6 9a 0.4,0.4 0 0 1 0.4,0.4L 9 9.6a 0.4,0.4 0 0 1 -0.4,0.4L 8.4 10a 0.4,0.4 0 0 1 -0.4,-0.4z M 10 9.4a 0.4,0.4 0 0 1 0.4,-0.4L 11.6 9a 0.4,0.4 0 0 1 0.4,0.4L 12 10.6a 0.4,0.4 0 0 0 0.4,0.4L 12.6 11a 0.4,0.4 0 0 1 0.4,0.4L 13 11.6a 0.4,0.4 0 0 1 -0.4,0.4L 11.4 12a 0.4,0.4 0 0 1 -0.4,-0.4L 11 10.4a 0.4,0.4 0 0 0 -0.4,-0.4L 10.4 10a 0.4,0.4 0 0 1 -0.4,-0.4z M 6 10.4a 0.4,0.4 0 0 1 0.4,-0.4L 6.6 10a 0.4,0.4 0 0 1 0.4,0.4L 7 10.6a 0.4,0.4 0 0 1 -0.4,0.4L 6.4 11a 0.4,0.4 0 0 1 -0.4,-0.4z M 9 10.4a 0.4,0.4 0 0 1 0.4,-0.4L 9.6 10a 0.4,0.4 0 0 1 0.4,0.4L 10 10.6a 0.4,0.4 0 0 1 -0.4,0.4L 9.4 11a 0.4,0.4 0 0 1 -0.4,-0.4z M 0 11.4a 0.4,0.4 0 0 1 0.4,-0.4L 0.6 11a 0.4,0.4 0 0 1 0.4,0.4L 1 11.6a 0.4,0.4 0 0 1 -0.4,0.4L 0.4 12a 0.4,0.4 0 0 1 -0.4,-0.4z M 5 11.4a 0.4,0.4 0 0 1 0.4,-0.4L 5.6 11a 0.4,0.4 0 0 1 0.4,0.4L 6 11.6a 0.4,0.4 0 0 1 -0.4,0.4L 5.4 12a 0.4,0.4 0 0 1 -0.4,-0.4z M 7 11.4a 0.4,0.4 0 0 1 0.4,-0.4L 8.6 11a 0.4,0.4 0 0 1 0.4,0.4L 9 11.6a 0.4,0.4 0 0 1 -0.4,0.4L 7.4 12a 0.4,0.4 0 0 1 -0.4,-0.4z M 14 11.4a 0.4,0.4 0 0 1 0.4,-0.4L 14.6 11a 0.4,0.4 0 0 1 0.4,0.4L 15 11.6a 0.4,0.4 0 0 1 -0.4,0.4L 14.4 12a 0.4,0.4 0 0 1 -0.4,-0.4z M 6 12.4a 0.4,0.4 0 0 1 0.4,-0.4L 6.6 12a 0.4,0.4 0 0 1 0.4,0.4L 7 12.6a 0.4,0.4 0 0 1 -0.4,0.4L 6.4 13a 0.4,0.4 0 0 1 -0.4,-0.4z M 0 13.4a 0.4,0.4 0 0 1 0.4,-0.4L 0.6 13a 0.4,0.4 0 0 1 0.4,0.4L 1 13.6a 0.4,0.4 0 0 0 0.4,0.4L 1.6 14a 0.4,0.4 0 0 1 0.4,0.4L 2 14.6a 0.4,0.4 0 0 1 -0.4,0.4L 1.4 15a 0.4,0.4 0 0 0 -0.4,0.4L 1 16.6a 0.4,0.4 0 0 1 -0.4,0.4L 0.4 17a 0.4,0.4 0 0 1 -0.4,-0.4z M 2 13.4a 0.4,0.4 0 0 1 0.4,-0.4L 2.6 13a 0.4,0.4 0 0 1 0.4,0.4L 3 13.6a 0.4,0.4 0 0 1 -0.4,0.4L 2.4 14a 0.4,0.4 0 0 1 -0.4,-0.4z M 20 13.4a 0.4,0.4 0 0 1 0.4,-0.4L 20.6 13a 0.4,0.4 0 0 1 0.4,0.4L 21 13.6a 0.4,0.4 0 0 0 0.4,0.4L 22.6 14a 0.4,0.4 0 0 0 0.4,-0.4L 23 13.4a 0.4,0.4 0 0 1 0.4,-0.4L 23.6 13a 0.4,0.4 0 0 1 0.4,0.4L 24 13.6a 0.4,0.4 0 0 0 0.4,0.4L 24.6 14a 0.4,0.4 0 0 1 0.4,0.4L 25 15.6a 0.4,0.4 0 0 1 -0.4,0.4L 24.4 16a 0.4,0.4 0 0 1 -0.4,-0.4L 24 15.4a 0.4,0.4 0 0 0 -0.4,-0.4L 23.4 15a 0.4,0.4 0 0 0 -0.4,0.4L 23 15.6a 0.4,0.4 0 0 0 0.4,0.4L 23.6 16a 0.4,0.4 0 0 1 0.4,0.4L 24 17.6a 0.4,0.4 0 0 1 -0.4,0.4L 22.4 18a 0.4,0.4 0 0 1 -0.4,-0.4L 22 16.4a 0.4,0.4 0 0 0 -0.4,-0.4L 21.4 16a 0.4,0.4 0 0 1 -0.4,-0.4L 21 15.4a 0.4,0.4 0 0 0 -0.4,-0.4L 20.4 15a 0.4,0.4 0 0 1 -0.4,-0.4z M 17 14.4a 0.4,0.4 0 0 1 0.4,-0.4L 17.6 14a 0.4,0.4 0 0 1 0.4,0.4L 18 14.6a 0.4,0.4 0 0 1 -0.4,0.4L 17.4 15a 0.4,0.4 0 0 1 -0.4,-0.4z M 12 15.4a 0.4,0.4 0 0 1 0.4,-0.4L 12.6 15a 0.4,0.4 0 0 1 0.4,0.4L 13 15.6a 0.4,0.4 0 0 1 -0.4,0.4L 12.4 16a 0.4,0.4 0 0 1 -0.4,-0.4z M 19 15.4a 0.4,0.4 0 0 1 0.4,-0.4L 19.6 15a 0.4,0.4 0 0 1 0.4,0.4L 20 15.6a 0.4,0.4 0 0 1 -0.4,0.4L 19.4 16a 0.4,0.4 0 0 1 -0.4,-0.4z M 2 16.4a 0.4,0.4 0 0 1 0.4,-0.4L 3.6 16a 0.4,0.4 0 0 1 0.4,0.4L 4 16.6a 0.4,0.4 0 0 1 -0.4,0.4L 2.4 17a 0.4,0.4 0 0 1 -0.4,-0.4z M 13 16.4a 0.4,0.4 0 0 1 0.4,-0.4L 13.6 16a 0.4,0.4 0 0 1 0.4,0.4L 14 17.6a 0.4,0.4 0 0 0 0.4,0.4L 14.6 18a 0.4,0.4 0 0 1 0.4,0.4L 15 18.6a 0.4,0.4 0 0 1 -0.4,0.4L 14.4 19a 0.4,0.4 0 0 0 -0.4,0.4L 14 19.6a 0.4,0.4 0 0 1 -0.4,0.4L 12.4 20a 0.4,0.4 0 0 1 -0.4,-0.4L 12 19.4a 0.4,0.4 0 0 1 0.4,-0.4L 12.6 19a 0.4,0.4 0 0 0 0.4,-0.4z M 8 17.4a 0.4,0.4 0 0 1 0.4,-0.4L 8.6 17a 0.4,0.4 0 0 1 0.4,0.4L 9 17.6a 0.4,0.4 0 0 1 -0.4,0.4L 8.4 18a 0.4,0.4 0 0 1 -0.4,-0.4z M 24 18.4a 0.4,0.4 0 0 1 0.4,-0.4L 24.6 18a 0.4,0.4 0 0 1 0.4,0.4L 25 19.6a 0.4,0.4 0 0 1 -0.4,0.4L 24.4 20a 0.4,0.4 0 0 1 -0.4,-0.4z M 15 19.4a 0.4,0.4 0 0 1 0.4,-0.4L 15.6 19a 0.4,0.4 0 0 1 0.4,0.4L 16 20.6a 0.4,0.4 0 0 0 0.4,0.4L 18.6 21a 0.4,0.4 0 0 1 0.4,0.4L 19 21.6a 0.4,0.4 0 0 1 -0.4,0.4L 16.4 22a 0.4,0.4 0 0 0 -0.4,0.4L 16 22.6a 0.4,0.4 0 0 1 -0.4,0.4L 15.4 23a 0.4,0.4 0 0 1 -0.4,-0.4L 15 22.4a 0.4,0.4 0 0 0 -0.4,-0.4L 13.4 22a 0.4,0.4 0 0 1 -0.4,-0.4L 13 21.4a 0.4,0.4 0 0 1 0.4,-0.4L 13.6 21a 0.4,0.4 0 0 0 0.4,-0.4L 14 20.4a 0.4,0.4 0 0 1 0.4,-0.4L 14.6 20a 0.4,0.4 0 0 0 0.4,-0.4z M 23 20.4a 0.4,0.4 0 0 1 0.4,-0.4L 23.6 20a 0.4,0.4 0 0 1 0.4,0.4L 24 20.6a 0.4,0.4 0 0 0 0.4,0.4L 24.6 21a 0.4,0.4 0 0 1 0.4,0.4L 25 24.6a 0.4,0.4 0 0 1 -0.4,0.4L 24.4 25a 0.4,0.4 0 0 1 -0.4,-0.4L 24 24.4a 0.4,0.4 0 0 0 -0.4,-0.4L 22.4 24a 0.4,0.4 0 0 1 -0.4,-0.4L 22 23.4a 0.4,0.4 0 0 0 -0.4,-0.4L 21.4 23a 0.4,0.4 0 0 0 -0.4,0.4L 21 23.6a 0.4,0.4 0 0 1 -0.4,0.4L 19.4 24a 0.4,0.4 0 0 0 -0.4,0.4L 19 24.6a 0.4,0.4 0 0 1 -0.4,0.4L 16.4 25a 0.4,0.4 0 0 1 -0.4,-0.4L 16 24.4a 0.4,0.4 0 0 1 0.4,-0.4L 16.6 24a 0.4,0.4 0 0 0 0.4,-0.4L 17 23.4a 0.4,0.4 0 0 1 0.4,-0.4L 19.6 23a 0.4,0.4 0 0 0 0.4,-0.4L 20 22.4a 0.4,0.4 0 0 1 0.4,-0.4L 22.6 22a 0.4,0.4 0 0 0 0.4,-0.4z M 13 24.4a 0.4,0.4 0 0 1 0.4,-0.4L 13.6 24a 0.4,0.4 0 0 1 0.4,0.4L 14 24.6a 0.4,0.4 0 0 1 -0.4,0.4L 13.4 25a 0.4,0.4 0 0 1 -0.4,-0.4z M 21 24.4a 0.4,0.4 0 0 1 0.4,-0.4L 21.6 24a 0.4,0.4 0 0 1 0.4,0.4L 22 24.6a 0.4,0.4 0 0 1 -0.4,0.4L 21.4 25a 0.4,0.4 0 0 1 -0.4,-0.4z"></path><path id="qr squares" d="M1.05,0h4.9a1.05,1.05 0 0 1 1.05,1.05v4.9a1.05,1.05 0 0 1 -1.05,1.05h-4.9a1.05,1.05 0 0 1 -1.05,-1.05v-4.9a1.05,1.05 0 0 1 1.05,-1.05zM1.75,1h3.5a0.75,0.75 0 0 1 0.75,0.75v3.5a0.75,0.75 0 0 1 -0.75,0.75h-3.5a0.75,0.75 0 0 1 -0.75,-0.75v-3.5a0.75,0.75 0 0 1 0.75,-0.75zM2.45,2h2.1a0.44999999999999996,0.44999999999999996 0 0 1 0.44999999999999996,0.44999999999999996v2.1a0.44999999999999996,0.44999999999999996 0 0 1 -0.44999999999999996,0.44999999999999996h-2.1a0.44999999999999996,0.44999999999999996 0 0 1 -0.44999999999999996,-0.44999999999999996v-2.1a0.44999999999999996,0.44999999999999996 0 0 1 0.44999999999999996,-0.44999999999999996z M19.05,0h4.9a1.05,1.05 0 0 1 1.05,1.05v4.9a1.05,1.05 0 0 1 -1.05,1.05h-4.9a1.05,1.05 0 0 1 -1.05,-1.05v-4.9a1.05,1.05 0 0 1 1.05,-1.05zM19.75,1h3.5a0.75,0.75 0 0 1 0.75,0.75v3.5a0.75,0.75 0 0 1 -0.75,0.75h-3.5a0.75,0.75 0 0 1 -0.75,-0.75v-3.5a0.75,0.75 0 0 1 0.75,-0.75zM20.45,2h2.1a0.44999999999999996,0.44999999999999996 0 0 1 0.44999999999999996,0.44999999999999996v2.1a0.44999999999999996,0.44999999999999996 0 0 1 -0.44999999999999996,0.44999999999999996h-2.1a0.44999999999999996,0.44999999999999996 0 0 1 -0.44999999999999996,-0.44999999999999996v-2.1a0.44999999999999996,0.44999999999999996 0 0 1 0.44999999999999996,-0.44999999999999996z M1.05,18h4.9a1.05,1.05 0 0 1 1.05,1.05v4.9a1.05,1.05 0 0 1 -1.05,1.05h-4.9a1.05,1.05 0 0 1 -1.05,-1.05v-4.9a1.05,1.05 0 0 1 1.05,-1.05zM1.75,19h3.5a0.75,0.75 0 0 1 0.75,0.75v3.5a0.75,0.75 0 0 1 -0.75,0.75h-3.5a0.75,0.75 0 0 1 -0.75,-0.75v-3.5a0.75,0.75 0 0 1 0.75,-0.75zM2.45,20h2.1a0.44999999999999996,0.44999999999999996 0 0 1 0.44999999999999996,0.44999999999999996v2.1a0.44999999999999996,0.44999999999999996 0 0 1 -0.44999999999999996,0.44999999999999996h-2.1a0.44999999999999996,0.44999999999999996 0 0 1 -0.44999999999999996,-0.44999999999999996v-2.1a0.44999999999999996,0.44999999999999996 0 0 1 0.44999999999999996,-0.44999999999999996zM16.75,16h3.5a0.75,0.75 0 0 1 0.75,0.75v3.5a0.75,0.75 0 0 1 -0.75,0.75h-3.5a0.75,0.75 0 0 1 -0.75,-0.75v-3.5a0.75,0.75 0 0 1 0.75,-0.75zM17.45,17h2.1a0.44999999999999996,0.44999999999999996 0 0 1 0.44999999999999996,0.44999999999999996v2.1a0.44999999999999996,0.44999999999999996 0 0 1 -0.44999999999999996,0.44999999999999996h-2.1a0.44999999999999996,0.44999999999999996 0 0 1 -0.44999999999999996,-0.44999999999999996v-2.1a0.44999999999999996,0.44999999999999996 0 0 1 0.44999999999999996,-0.44999999999999996zM18.15,18h0.7a0.15,0.15 0 0 1 0.15,0.15v0.7a0.15,0.15 0 0 1 -0.15,0.15h-0.7a0.15,0.15 0 0 1 -0.15,-0.15v-0.7a0.15,0.15 0 0 1 0.15,-0.15z" fill-rule="evenodd" fill-opacity="1" fill="rgb(0, 0, 0)"></path></svg>